<svg xmlns="http://www.w3.org/2000/svg" viewBox="0 0 90.61 50.84" data-name="图层 1" id="_图层_1">
  <defs>
    <style>
      .cls-1 {
        fill: #000;
        stroke-width: 0px;
      }

      .cls-2 {
        fill: none;
        stroke: #fff;
      }
    </style>
  </defs>
  <g>
    <path d="M1.47,30.5H.14V0h1.33v30.5ZM4.12,30.5h-1.33V0h1.33v30.5ZM6.77,30.5h-1.33V0h1.33v30.5ZM9.43,30.5h-1.33V0h14.68v1.33h-13.35v1.33h13.35v1.33h-13.35v1.33h13.35v1.33h-13.35v6.63h12.73v1.33h-12.73v1.33h12.73v1.33h-12.73v1.33h12.73v1.33h-12.73v10.61Z" class="cls-1"/>
    <path d="M42.91,30.5h-17V0h17c2.39,0,4.63.68,6.7,2.04s3.73,3.22,4.96,5.56c1.23,2.35,1.85,4.89,1.85,7.64,0,2.06-.37,4.04-1.1,5.92-.73,1.89-1.7,3.51-2.92,4.87-1.22,1.36-2.66,2.45-4.32,3.25-1.66.8-3.39,1.21-5.19,1.21ZM27.24,29.18h15.68c1.61,0,3.16-.37,4.66-1.11,1.5-.74,2.79-1.73,3.89-2.97s1.97-2.72,2.62-4.45c.66-1.73.99-3.53.99-5.41s-.33-3.68-.99-5.4c-.66-1.72-1.53-3.2-2.62-4.45-1.09-1.25-2.39-2.24-3.89-2.97-1.5-.74-3.05-1.11-4.66-1.11h-15.68v27.85ZM28.56,27.85V2.65h14.35c1.92,0,3.7.56,5.36,1.69,1.66,1.12,2.98,2.66,3.96,4.6.98,1.94,1.47,4.05,1.47,6.32s-.49,4.38-1.47,6.32c-.98,1.94-2.3,3.47-3.96,4.6s-3.44,1.69-5.36,1.69h-14.35ZM29.89,26.52h13.02c1.68,0,3.25-.5,4.69-1.51,1.44-1.01,2.59-2.38,3.45-4.11.86-1.73,1.29-3.62,1.29-5.65s-.43-3.91-1.29-5.65c-.86-1.74-2.01-3.11-3.46-4.12-1.45-1.01-3.01-1.51-4.68-1.51h-13.02v22.55ZM31.22,25.2V5.31h11.7c1.44,0,2.77.44,4.02,1.33s2.23,2.09,2.96,3.62c.73,1.53,1.1,3.2,1.1,5s-.37,3.46-1.1,4.99c-.73,1.54-1.72,2.74-2.96,3.63-1.24.88-2.58,1.33-4.02,1.33h-11.7ZM32.54,23.87h10.37c1.83,0,3.4-.84,4.72-2.53,1.32-1.69,1.98-3.72,1.98-6.09,0-1.56-.3-3-.91-4.33-.61-1.33-1.42-2.37-2.45-3.14-1.03-.77-2.14-1.15-3.34-1.15h-10.37v17.24ZM33.87,22.55V7.96h9.04c1.46,0,2.72.72,3.77,2.15,1.05,1.43,1.57,3.15,1.57,5.15s-.52,3.73-1.57,5.16c-1.05,1.42-2.31,2.14-3.77,2.14h-9.04ZM35.2,21.22h7.72c1.09,0,2.03-.58,2.81-1.75.78-1.17,1.17-2.57,1.17-4.22s-.39-3.07-1.17-4.23-1.72-1.74-2.81-1.74h-7.72v11.94Z" class="cls-1"/>
    <path d="M57.76,30.5h-1.44L68.39,0h1.44l12.05,30.5h-1.42L69.11,1.79l-11.35,28.72ZM69.27,4.94l.76,1.69-9.43,23.87h-1.42l10.09-25.57ZM70.75,8.44l.7,1.82-7.98,20.24h-1.44l8.71-22.07ZM72.15,12.08l.7,1.86-6.54,16.56h-1.42l7.26-18.42ZM68.53,26.86l.52-1.33h8.69l.55,1.33h-9.76ZM69.57,24.2l.52-1.33h6.61l.57,1.33h-7.7ZM70.6,21.55l.53-1.33h4.53l.53,1.33h-5.6ZM72.66,0l12.07,30.5h-1.44L71.24,0h1.42ZM75.52,0l12.06,30.5h-1.42L74.1,0h1.42ZM90.44,30.5h-1.44L76.95,0h1.42l12.06,30.5Z" class="cls-1"/>
  </g>
  <g>
    <path d="M16.38,47.1c-.88-.46-1.58-1.14-2.11-2.04-.53-.9-.79-2-.79-3.3s.27-2.38.8-3.28c.53-.9,1.24-1.59,2.12-2.04.88-.46,1.83-.69,2.87-.69.9,0,1.72.16,2.46.49.74.33,1.34.8,1.81,1.42s.77,1.36.87,2.22h-1.99c-.12-.75-.47-1.35-1.05-1.8s-1.29-.67-2.12-.67c-.74,0-1.4.17-1.98.51-.58.34-1.03.84-1.36,1.5s-.5,1.44-.5,2.34.17,1.7.5,2.35.79,1.15,1.36,1.49c.58.34,1.24.51,1.98.51.84,0,1.54-.21,2.11-.65.57-.43.92-1.03,1.06-1.81h2.01c-.22,1.33-.8,2.35-1.74,3.06-.94.71-2.08,1.07-3.42,1.07-1.05,0-2.01-.23-2.88-.69Z" class="cls-1"/>
    <path d="M26.89,35.87h1.9v10.08h5.67v1.7h-7.57v-11.78Z" class="cls-1"/>
    <path d="M36.52,35.87h7.65v1.67h-5.75v3.04h4.64v1.67h-4.64v3.73h5.93v1.68h-7.83v-11.78Z" class="cls-1"/>
    <path d="M50.58,35.87h2.01l4.58,11.78h-2.04l-1.06-2.81h-5.02l-1.05,2.81h-1.98l4.56-11.78ZM53.44,43.19l-1.9-5-1.88,5h3.78Z" class="cls-1"/>
    <path d="M59.16,35.87h4.94c1.17,0,2.09.31,2.76.93s1.01,1.47,1.01,2.55c0,.68-.17,1.28-.5,1.81-.33.53-.79.92-1.38,1.18.41.19.73.44.96.76.22.32.39.75.51,1.28l.39,1.91c.11.59.26,1.04.46,1.36h-2.04c-.17-.26-.29-.59-.34-1l-.33-1.88c-.12-.7-.4-1.2-.83-1.5-.43-.3-1.09-.46-1.97-.46h-1.75v4.84h-1.9v-11.78ZM65.38,40.67c.36-.31.55-.75.55-1.32s-.18-1.01-.55-1.32c-.37-.32-.87-.47-1.53-.47h-2.79v3.58h2.79c.65,0,1.16-.16,1.53-.47Z" class="cls-1"/>
    <path d="M70.76,35.87h7.65v1.67h-5.75v3.04h4.64v1.67h-4.64v3.73h5.93v1.68h-7.83v-11.78Z" class="cls-1"/>
    <path d="M80.95,35.87h3.68c1.11,0,2.12.23,3.02.68.9.45,1.62,1.12,2.16,2s.8,1.95.8,3.2-.27,2.32-.8,3.21-1.25,1.56-2.16,2.01c-.9.45-1.91.68-3.02.68h-3.68v-11.78ZM86.58,45.53c.63-.29,1.13-.75,1.51-1.38.38-.63.57-1.42.57-2.39s-.19-1.75-.57-2.38-.89-1.09-1.51-1.38-1.32-.44-2.07-.44h-1.67v8.42h1.67c.75,0,1.44-.15,2.07-.44Z" class="cls-1"/>
  </g>
  <g>
    <path d="M0,37.21l5.38-1.57,5.38,1.57v3.22c0,3.38-2.17,6.39-5.38,7.46-3.21-1.07-5.38-4.08-5.38-7.46v-3.22Z" class="cls-1"/>
    <path d="M2.9,41.07l1.83,1.83,3.14-3.14" class="cls-2"/>
  </g>
  <rect height=".87" width="90.61" y="32.98" class="cls-1"/>
  <rect height=".87" width="90.61" y="49.97" class="cls-1"/>
<script xmlns=""/></svg>